<svg width="153" height="56" viewBox="0 0 153 56" fill="none" xmlns="http://www.w3.org/2000/svg">
<path d="M26.09 12.65C24.95 12.65 23.92 12.85 23 13.25C22.08 13.63 21.3 14.2 20.66 14.96C20.02 15.7 19.53 16.61 19.19 17.69C18.85 18.75 18.68 19.95 18.68 21.29C18.68 23.05 18.95 24.58 19.49 25.88C20.05 27.18 20.87 28.18 21.95 28.88C23.05 29.58 24.42 29.93 26.06 29.93C27 29.93 27.89 29.85 28.73 29.69C29.57 29.53 30.39 29.33 31.19 29.09V31.43C30.39 31.73 29.56 31.95 28.7 32.09C27.86 32.23 26.85 32.3 25.67 32.3C23.49 32.3 21.67 31.85 20.21 30.95C18.75 30.05 17.65 28.77 16.91 27.11C16.19 25.45 15.83 23.5 15.83 21.26C15.83 19.64 16.05 18.16 16.49 16.82C16.95 15.48 17.61 14.32 18.47 13.34C19.35 12.36 20.43 11.61 21.71 11.09C22.99 10.55 24.46 10.28 26.12 10.28C27.22 10.28 28.28 10.39 29.3 10.61C30.32 10.83 31.23 11.14 32.03 11.54L30.95 13.82C30.29 13.52 29.55 13.25 28.73 13.01C27.93 12.77 27.05 12.65 26.09 12.65ZM37.3651 32V10.58H40.0651V29.6H49.4251V32H37.3651ZM68.0375 32L65.4575 25.37H56.9675L54.4175 32H51.6875L60.0575 10.49H62.4875L70.8275 32H68.0375ZM62.2475 16.49C62.1875 16.33 62.0875 16.04 61.9475 15.62C61.8075 15.2 61.6675 14.77 61.5275 14.33C61.4075 13.87 61.3075 13.52 61.2275 13.28C61.1275 13.68 61.0175 14.09 60.8975 14.51C60.7975 14.91 60.6875 15.28 60.5675 15.62C60.4675 15.96 60.3775 16.25 60.2975 16.49L57.8675 22.97H64.6475L62.2475 16.49ZM87.4077 26.27C87.4077 27.55 87.0977 28.64 86.4777 29.54C85.8577 30.42 84.9677 31.1 83.8077 31.58C82.6677 32.06 81.3177 32.3 79.7577 32.3C78.9577 32.3 78.1877 32.26 77.4477 32.18C76.7277 32.1 76.0677 31.99 75.4677 31.85C74.8677 31.69 74.3377 31.5 73.8777 31.28V28.7C74.5977 29.02 75.4877 29.31 76.5477 29.57C77.6277 29.83 78.7377 29.96 79.8777 29.96C80.9377 29.96 81.8277 29.82 82.5477 29.54C83.2677 29.26 83.8077 28.86 84.1677 28.34C84.5277 27.82 84.7077 27.21 84.7077 26.51C84.7077 25.81 84.5577 25.22 84.2577 24.74C83.9577 24.26 83.4377 23.82 82.6977 23.42C81.9777 23 80.9677 22.56 79.6677 22.1C78.7477 21.76 77.9377 21.4 77.2377 21.02C76.5577 20.62 75.9877 20.17 75.5277 19.67C75.0677 19.17 74.7177 18.6 74.4777 17.96C74.2577 17.32 74.1477 16.58 74.1477 15.74C74.1477 14.6 74.4377 13.63 75.0177 12.83C75.5977 12.01 76.3977 11.38 77.4177 10.94C78.4577 10.5 79.6477 10.28 80.9877 10.28C82.1677 10.28 83.2477 10.39 84.2277 10.61C85.2077 10.83 86.0977 11.12 86.8977 11.48L86.0577 13.79C85.3177 13.47 84.5077 13.2 83.6277 12.98C82.7677 12.76 81.8677 12.65 80.9277 12.65C80.0277 12.65 79.2777 12.78 78.6777 13.04C78.0777 13.3 77.6277 13.67 77.3277 14.15C77.0277 14.61 76.8777 15.15 76.8777 15.77C76.8777 16.49 77.0277 17.09 77.3277 17.57C77.6277 18.05 78.1177 18.48 78.7977 18.86C79.4777 19.24 80.3977 19.65 81.5577 20.09C82.8177 20.55 83.8777 21.05 84.7377 21.59C85.6177 22.11 86.2777 22.74 86.7177 23.48C87.1777 24.22 87.4077 25.15 87.4077 26.27ZM105.373 26.27C105.373 27.55 105.063 28.64 104.443 29.54C103.823 30.42 102.933 31.1 101.773 31.58C100.633 32.06 99.2825 32.3 97.7225 32.3C96.9225 32.3 96.1525 32.26 95.4125 32.18C94.6925 32.1 94.0325 31.99 93.4325 31.85C92.8325 31.69 92.3025 31.5 91.8425 31.28V28.7C92.5625 29.02 93.4525 29.31 94.5125 29.57C95.5925 29.83 96.7025 29.96 97.8425 29.96C98.9025 29.96 99.7925 29.82 100.513 29.54C101.233 29.26 101.773 28.86 102.133 28.34C102.493 27.82 102.673 27.21 102.673 26.51C102.673 25.81 102.523 25.22 102.223 24.74C101.923 24.26 101.403 23.82 100.663 23.42C99.9425 23 98.9325 22.56 97.6325 22.1C96.7125 21.76 95.9025 21.4 95.2025 21.02C94.5225 20.62 93.9525 20.17 93.4925 19.67C93.0325 19.17 92.6825 18.6 92.4425 17.96C92.2225 17.32 92.1125 16.58 92.1125 15.74C92.1125 14.6 92.4025 13.63 92.9825 12.83C93.5625 12.01 94.3625 11.38 95.3825 10.94C96.4225 10.5 97.6125 10.28 98.9525 10.28C100.133 10.28 101.213 10.39 102.193 10.61C103.173 10.83 104.063 11.12 104.863 11.48L104.023 13.79C103.283 13.47 102.473 13.2 101.593 12.98C100.733 12.76 99.8325 12.65 98.8925 12.65C97.9925 12.65 97.2425 12.78 96.6425 13.04C96.0425 13.3 95.5925 13.67 95.2925 14.15C94.9925 14.61 94.8425 15.15 94.8425 15.77C94.8425 16.49 94.9925 17.09 95.2925 17.57C95.5925 18.05 96.0825 18.48 96.7625 18.86C97.4425 19.24 98.3625 19.65 99.5225 20.09C100.783 20.55 101.843 21.05 102.703 21.59C103.583 22.11 104.243 22.74 104.683 23.48C105.143 24.22 105.373 25.15 105.373 26.27ZM117.217 32H109.477V30.44L111.997 29.87V12.74L109.477 12.14V10.58H117.217V12.14L114.697 12.74V29.87L117.217 30.44V32ZM132.033 12.65C130.893 12.65 129.863 12.85 128.943 13.25C128.023 13.63 127.243 14.2 126.603 14.96C125.963 15.7 125.473 16.61 125.133 17.69C124.793 18.75 124.623 19.95 124.623 21.29C124.623 23.05 124.893 24.58 125.433 25.88C125.993 27.18 126.813 28.18 127.893 28.88C128.993 29.58 130.363 29.93 132.003 29.93C132.943 29.93 133.833 29.85 134.673 29.69C135.513 29.53 136.333 29.33 137.133 29.09V31.43C136.333 31.73 135.503 31.95 134.643 32.09C133.803 32.23 132.793 32.3 131.613 32.3C129.433 32.3 127.613 31.85 126.153 30.95C124.693 30.05 123.593 28.77 122.853 27.11C122.133 25.45 121.773 23.5 121.773 21.26C121.773 19.64 121.993 18.16 122.433 16.82C122.893 15.48 123.553 14.32 124.413 13.34C125.293 12.36 126.373 11.61 127.653 11.09C128.933 10.55 130.403 10.28 132.063 10.28C133.163 10.28 134.223 10.39 135.243 10.61C136.263 10.83 137.173 11.14 137.973 11.54L136.893 13.82C136.233 13.52 135.493 13.25 134.673 13.01C133.873 12.77 132.993 12.65 132.033 12.65Z" fill="black"/>
<path d="M5.72729 54L2.67229 45.862H2.62029C2.63763 46.0353 2.65063 46.2563 2.65929 46.525C2.67663 46.7937 2.68963 47.0883 2.69829 47.409C2.70696 47.721 2.71129 48.0417 2.71129 48.371V54H1.63229V44.718H3.36129L6.22129 52.323H6.27329L9.18529 44.718H10.9013V54H9.74429V48.293C9.74429 47.9897 9.74863 47.6907 9.75729 47.396C9.76596 47.0927 9.77896 46.811 9.79629 46.551C9.81363 46.2823 9.82663 46.057 9.83529 45.875H9.78329L6.68929 54H5.72729ZM21.8502 54L20.7322 51.127H17.0532L15.9482 54H14.7652L18.3922 44.679H19.4452L23.0592 54H21.8502ZM19.3412 47.279C19.3152 47.2097 19.2719 47.084 19.2112 46.902C19.1506 46.72 19.0899 46.5337 19.0292 46.343C18.9772 46.1437 18.9339 45.992 18.8992 45.888C18.8559 46.0613 18.8082 46.239 18.7562 46.421C18.7129 46.5943 18.6652 46.7547 18.6132 46.902C18.5699 47.0493 18.5309 47.175 18.4962 47.279L17.4432 50.087H20.3812L19.3412 47.279ZM34.365 49.268C34.365 50.308 34.17 51.179 33.78 51.881C33.3986 52.583 32.8483 53.1117 32.129 53.467C31.4096 53.8223 30.5386 54 29.516 54H26.929V44.718H29.789C30.725 44.718 31.5353 44.8913 32.22 45.238C32.9046 45.5847 33.4333 46.096 33.806 46.772C34.1786 47.4393 34.365 48.2713 34.365 49.268ZM33.13 49.307C33.13 48.4837 32.9913 47.8077 32.714 47.279C32.4453 46.7503 32.0466 46.3603 31.518 46.109C30.998 45.849 30.3653 45.719 29.62 45.719H28.099V52.999H29.36C30.6166 52.999 31.557 52.6913 32.181 52.076C32.8136 51.452 33.13 50.529 33.13 49.307ZM44.2121 54H39.0251V44.718H44.2121V45.745H40.1951V48.644H43.9781V49.658H40.1951V52.973H44.2121V54ZM57.4777 44.718C58.249 44.718 58.8947 44.7917 59.4147 44.939C59.9433 45.0863 60.3377 45.329 60.5977 45.667C60.8663 46.005 61.0007 46.4557 61.0007 47.019C61.0007 47.383 60.9313 47.708 60.7927 47.994C60.6627 48.2713 60.4633 48.5053 60.1947 48.696C59.9347 48.878 59.614 49.0037 59.2327 49.073V49.138C59.6227 49.1987 59.9737 49.3113 60.2857 49.476C60.6063 49.6407 60.8577 49.8747 61.0397 50.178C61.2217 50.4813 61.3127 50.8757 61.3127 51.361C61.3127 51.9243 61.1827 52.4053 60.9227 52.804C60.6627 53.194 60.29 53.493 59.8047 53.701C59.328 53.9003 58.756 54 58.0887 54H54.8257V44.718H57.4777ZM57.7117 48.67C58.509 48.67 59.055 48.5443 59.3497 48.293C59.6443 48.033 59.7917 47.6517 59.7917 47.149C59.7917 46.6377 59.6097 46.2737 59.2457 46.057C58.8903 45.8317 58.3183 45.719 57.5297 45.719H55.9957V48.67H57.7117ZM55.9957 49.645V53.012H57.8677C58.691 53.012 59.263 52.8517 59.5837 52.531C59.9043 52.2103 60.0647 51.79 60.0647 51.27C60.0647 50.9407 59.991 50.6547 59.8437 50.412C59.705 50.1693 59.4667 49.983 59.1287 49.853C58.7993 49.7143 58.3487 49.645 57.7767 49.645H55.9957ZM68.2987 49.281L70.7167 44.718H71.9777L68.8837 50.399V54H67.7137V50.451L64.6197 44.718H65.8937L68.2987 49.281ZM87.086 51.517C87.086 52.0717 86.9516 52.544 86.683 52.934C86.4143 53.3153 86.0286 53.61 85.526 53.818C85.032 54.026 84.447 54.13 83.771 54.13C83.4243 54.13 83.0906 54.1127 82.77 54.078C82.458 54.0433 82.172 53.9957 81.912 53.935C81.652 53.8657 81.4223 53.7833 81.223 53.688V52.57C81.535 52.7087 81.9206 52.8343 82.38 52.947C82.848 53.0597 83.329 53.116 83.823 53.116C84.2823 53.116 84.668 53.0553 84.98 52.934C85.292 52.8127 85.526 52.6393 85.682 52.414C85.838 52.1887 85.916 51.9243 85.916 51.621C85.916 51.3177 85.851 51.062 85.721 50.854C85.591 50.646 85.3656 50.4553 85.045 50.282C84.733 50.1 84.2953 49.9093 83.732 49.71C83.3333 49.5627 82.9823 49.4067 82.679 49.242C82.3843 49.0687 82.1373 48.8737 81.938 48.657C81.7386 48.4403 81.587 48.1933 81.483 47.916C81.3876 47.6387 81.34 47.318 81.34 46.954C81.34 46.46 81.4656 46.0397 81.717 45.693C81.9683 45.3377 82.315 45.0647 82.757 44.874C83.2076 44.6833 83.7233 44.588 84.304 44.588C84.8153 44.588 85.2833 44.6357 85.708 44.731C86.1326 44.8263 86.5183 44.952 86.865 45.108L86.501 46.109C86.1803 45.9703 85.8293 45.8533 85.448 45.758C85.0753 45.6627 84.6853 45.615 84.278 45.615C83.888 45.615 83.563 45.6713 83.303 45.784C83.043 45.8967 82.848 46.057 82.718 46.265C82.588 46.4643 82.523 46.6983 82.523 46.967C82.523 47.279 82.588 47.539 82.718 47.747C82.848 47.955 83.0603 48.1413 83.355 48.306C83.6496 48.4707 84.0483 48.6483 84.551 48.839C85.097 49.0383 85.5563 49.255 85.929 49.489C86.3103 49.7143 86.5963 49.9873 86.787 50.308C86.9863 50.6287 87.086 51.0317 87.086 51.517ZM98.6537 54H97.4837V49.671H92.7257V54H91.5557V44.718H92.7257V48.644H97.4837V44.718H98.6537V54ZM111.89 49.346C111.89 50.0653 111.799 50.7197 111.617 51.309C111.435 51.8897 111.162 52.3923 110.798 52.817C110.443 53.2417 109.997 53.5667 109.459 53.792C108.931 54.0173 108.315 54.13 107.613 54.13C106.885 54.13 106.253 54.0173 105.715 53.792C105.178 53.558 104.732 53.233 104.376 52.817C104.021 52.3923 103.757 51.8853 103.583 51.296C103.41 50.7067 103.323 50.0523 103.323 49.333C103.323 48.3797 103.479 47.5477 103.791 46.837C104.103 46.1263 104.576 45.5717 105.208 45.173C105.85 44.7743 106.656 44.575 107.626 44.575C108.554 44.575 109.334 44.7743 109.966 45.173C110.599 45.563 111.076 46.1177 111.396 46.837C111.726 47.5477 111.89 48.384 111.89 49.346ZM104.558 49.346C104.558 50.126 104.667 50.7977 104.883 51.361C105.1 51.9243 105.434 52.3577 105.884 52.661C106.344 52.9643 106.92 53.116 107.613 53.116C108.315 53.116 108.887 52.9643 109.329 52.661C109.78 52.3577 110.114 51.9243 110.33 51.361C110.547 50.7977 110.655 50.126 110.655 49.346C110.655 48.176 110.413 47.2617 109.927 46.603C109.442 45.9357 108.675 45.602 107.626 45.602C106.924 45.602 106.344 45.7537 105.884 46.057C105.434 46.3517 105.1 46.7807 104.883 47.344C104.667 47.8987 104.558 48.566 104.558 49.346ZM119.005 44.718C120.218 44.718 121.102 44.9563 121.657 45.433C122.211 45.9097 122.489 46.5813 122.489 47.448C122.489 47.8293 122.424 48.1977 122.294 48.553C122.172 48.8997 121.969 49.2117 121.683 49.489C121.397 49.7663 121.015 49.9873 120.539 50.152C120.062 50.308 119.477 50.386 118.784 50.386H117.718V54H116.548V44.718H119.005ZM118.901 45.719H117.718V49.385H118.654C119.243 49.385 119.733 49.3243 120.123 49.203C120.513 49.073 120.803 48.8693 120.994 48.592C121.184 48.3147 121.28 47.9507 121.28 47.5C121.28 46.902 121.089 46.4557 120.708 46.161C120.326 45.8663 119.724 45.719 118.901 45.719ZM129.957 54H128.787V45.745H125.888V44.718H132.843V45.745H129.957V54ZM142.029 54H136.842V44.718H142.029V45.745H138.012V48.644H141.795V49.658H138.012V52.973H142.029V54ZM149.604 54H148.434V45.745H145.535V44.718H152.49V45.745H149.604V54Z" fill="black"/>
</svg>
